<?xml version="1.0" encoding="utf-8"?>
<!-- Generator: Adobe Illustrator 16.0.0, SVG Export Plug-In . SVG Version: 6.00 Build 0)  -->
<!DOCTYPE svg PUBLIC "-//W3C//DTD SVG 1.1//EN" "http://www.w3.org/Graphics/SVG/1.1/DTD/svg11.dtd">
<svg version="1.1" id="Layer_1" xmlns="http://www.w3.org/2000/svg" xmlns:xlink="http://www.w3.org/1999/xlink" x="0px" y="0px"
	 width="301.103px" height="233.609px" viewBox="0 0 301.103 233.609" enable-background="new 0 0 301.103 233.609"
	 xml:space="preserve">
<line fill="none" stroke="#0F2835" stroke-width="2.5" stroke-miterlimit="10" x1="1" y1="159.126" x2="54.729" y2="189.224"/>
<rect x="6.67" y="138.428" transform="matrix(0.4924 -0.8704 0.8704 0.4924 -122.1804 95.6757)" fill="#DA251D" width="28.526" height="28.312"/>
<polygon fill="#FFFF00" points="15.513,157.375 19.729,155.454 22.86,158.87 22.335,154.267 26.552,152.346 22.011,151.421 
	21.486,146.817 19.197,150.864 14.705,149.95 17.802,153.33 "/>
<line fill="none" stroke="#0F2835" stroke-width="2.5" stroke-miterlimit="10" x1="30.669" y1="119.912" x2="76.759" y2="160.759"/>
<polygon fill="#0038A8" points="58.726,109.841 61.262,106.981 50.592,97.517 31.664,118.857 "/>
<polygon fill="#CE1126" points="53.004,137.786 71.933,116.445 61.262,106.981 58.726,109.841 "/>
<polygon fill="#FFFFFF" points="31.664,118.857 53.004,137.786 58.726,109.841 "/>
<path fill="#FCD116" d="M54.233,121.322l-0.391-0.348l-2.792,0.352c-0.008-0.062-0.018-0.123-0.03-0.185l2.539-0.489l-0.32-0.285
	l-2.257,0.591c-0.093-0.356-0.256-0.697-0.487-1.001l1.859-1.41l-0.026-0.426l-1.953,1.693c-0.041-0.047-0.083-0.092-0.127-0.137
	l2.001-1.978l-0.031-0.523l-0.523,0.032l-1.726,2.222c-0.049-0.038-0.1-0.075-0.15-0.11l1.448-2.14l-0.426,0.024l-1.179,2.015
	c-0.329-0.193-0.687-0.314-1.052-0.364l0.318-2.312l-0.32-0.284l-0.184,2.579c-0.062-0.005-0.125-0.007-0.187-0.007l0.016-2.814
	l-0.392-0.348l-0.348,0.391l0.352,2.792c-0.062,0.009-0.123,0.018-0.184,0.03l-0.49-2.539l-0.284,0.32l0.591,2.257
	c-0.357,0.093-0.698,0.256-1.001,0.486l-1.41-1.859l-0.426,0.026l1.693,1.952c-0.046,0.041-0.092,0.083-0.137,0.127l-1.979-2
	l-0.523,0.032l0.032,0.521l2.223,1.726c-0.039,0.049-0.076,0.1-0.11,0.151l-2.141-1.448l0.025,0.427l2.014,1.178
	c-0.192,0.33-0.313,0.687-0.363,1.052l-2.311-0.318l-0.284,0.32l2.579,0.184c-0.005,0.062-0.007,0.125-0.008,0.186l-2.813-0.016
	l-0.348,0.392l0.392,0.349l2.792-0.353c0.008,0.061,0.019,0.124,0.03,0.184l-2.539,0.49l0.32,0.283l2.256-0.591
	c0.093,0.357,0.256,0.698,0.487,1.001l-1.859,1.41l0.025,0.426l1.953-1.692c0.041,0.046,0.084,0.091,0.127,0.136l-2.001,1.979
	l0.031,0.523l0.523-0.032l1.726-2.222c0.049,0.039,0.099,0.075,0.15,0.11l-1.448,2.141l0.427-0.025l1.178-2.014
	c0.329,0.192,0.687,0.314,1.052,0.363l-0.318,2.312l0.321,0.283l0.183-2.579c0.062,0.004,0.125,0.007,0.187,0.007l-0.016,2.813
	l0.391,0.349l0.348-0.393l-0.352-2.792c0.062-0.008,0.124-0.018,0.185-0.029l0.489,2.537l0.284-0.319l-0.591-2.257
	c0.357-0.093,0.697-0.256,1.001-0.487l1.41,1.859l0.427-0.025l-1.693-1.953c0.047-0.04,0.091-0.083,0.136-0.127l1.979,2.002
	l0.522-0.032l-0.031-0.522l-2.223-1.726c0.038-0.049,0.075-0.1,0.109-0.151l2.141,1.449l-0.026-0.428l-2.014-1.178
	c0.192-0.33,0.313-0.687,0.363-1.052l2.311,0.318l0.284-0.32l-2.579-0.184c0.005-0.062,0.008-0.125,0.008-0.187l2.813,0.017
	L54.233,121.322z"/>
<polygon fill="#FCD116" points="35.229,121.126 36.082,120.378 37.08,120.917 36.632,119.875 37.454,119.092 36.324,119.196 
	35.833,118.173 35.583,119.28 34.458,119.429 35.434,120.009 "/>
<polygon fill="#FCD116" points="50.327,134.517 51.41,134.179 52.102,135.079 52.117,133.944 53.186,133.565 52.112,133.199 
	52.08,132.064 51.401,132.975 50.312,132.654 50.968,133.581 "/>
<polygon fill="#FCD116" points="54.233,113.5 55.361,113.634 55.628,114.737 56.103,113.706 57.234,113.793 56.4,113.023 
	56.833,111.975 55.843,112.529 54.979,111.792 55.201,112.906 "/>
<line fill="none" stroke="#0F2835" stroke-width="2.5" stroke-miterlimit="10" x1="247.329" y1="104.699" x2="209.924" y2="153.623"/>
<g>
	
		<rect x="236.554" y="111.336" transform="matrix(0.7929 0.6093 -0.6093 0.7929 128.5521 -126.8607)" fill="#DE2910" width="28.744" height="28.745"/>
	<polygon fill="#FFDE00" points="251.458,111.357 248.714,119.087 246.39,111.22 252.894,116.218 244.695,115.997 	"/>
	<polygon fill="#FFDE00" points="255.728,115.571 258.407,115.03 256.558,117.043 256.871,114.327 258.213,116.708 	"/>
	<polygon fill="#FFDE00" points="256.431,119.061 259.111,119.602 256.625,120.739 257.967,118.357 258.281,121.073 	"/>
	<polygon fill="#FFDE00" points="254.201,122.031 256.426,123.618 253.693,123.642 255.89,122.016 255.069,124.622 	"/>
	<polygon fill="#FFDE00" points="250.682,122.318 252.123,124.641 249.592,123.608 252.247,122.957 250.482,125.044 	"/>
</g>
<rect x="273.843" y="149.818" transform="matrix(0.6483 0.7614 -0.7614 0.6483 219.061 -165.0413)" fill="#FF9933" width="28.662" height="9.554"/>
<rect x="266.569" y="156.012" transform="matrix(0.6483 0.7614 -0.7614 0.6483 221.2182 -157.3243)" fill="#FFFFFF" width="28.663" height="9.554"/>
<rect x="259.298" y="162.206" transform="matrix(0.6483 0.7614 -0.7614 0.6483 223.3775 -149.6097)" fill="#128807" width="28.662" height="9.553"/>
<path fill="#000088" d="M283.805,158.317c-1.368-1.607-3.781-1.8-5.388-0.433c-1.606,1.369-1.799,3.781-0.431,5.388
	c1.368,1.606,3.78,1.8,5.387,0.431C284.979,162.336,285.173,159.924,283.805,158.317z M283.483,162.909
	c-0.069-0.058-0.17-0.052-0.231,0.015c-0.06,0.067-0.055,0.168,0.008,0.23c-0.063,0.064-0.128,0.126-0.198,0.186
	c-0.069,0.059-0.143,0.113-0.215,0.166c-0.051-0.073-0.151-0.094-0.227-0.044c-0.076,0.048-0.097,0.148-0.052,0.225
	c-0.159,0.092-0.322,0.168-0.491,0.232c-0.031-0.083-0.121-0.129-0.207-0.101c-0.085,0.027-0.132,0.117-0.108,0.203
	c-0.176,0.047-0.354,0.083-0.533,0.1c-0.008-0.089-0.084-0.158-0.173-0.153c-0.091,0.004-0.159,0.08-0.159,0.169
	c-0.181,0-0.362-0.014-0.54-0.043c0.015-0.088-0.041-0.173-0.128-0.193c-0.089-0.019-0.176,0.037-0.197,0.124
	c-0.174-0.046-0.344-0.109-0.511-0.184c0.038-0.081,0.005-0.177-0.075-0.218c-0.079-0.041-0.176-0.009-0.22,0.068
	c-0.155-0.09-0.305-0.192-0.446-0.308c0.056-0.069,0.051-0.17-0.016-0.23c-0.067-0.061-0.168-0.056-0.231,0.008
	c-0.064-0.064-0.126-0.127-0.186-0.197c-0.06-0.069-0.113-0.143-0.166-0.215c0.073-0.052,0.094-0.151,0.044-0.226
	c-0.048-0.076-0.148-0.098-0.225-0.053c-0.092-0.159-0.168-0.323-0.232-0.49c0.083-0.031,0.129-0.122,0.102-0.208
	c-0.028-0.085-0.118-0.131-0.203-0.107c-0.047-0.177-0.082-0.354-0.1-0.534c0.089-0.008,0.157-0.084,0.152-0.174
	c-0.005-0.09-0.08-0.159-0.169-0.158c0-0.181,0.015-0.361,0.044-0.541c0.087,0.015,0.173-0.041,0.191-0.128
	c0.02-0.088-0.036-0.174-0.123-0.196c0.047-0.174,0.109-0.345,0.184-0.511c0.081,0.037,0.177,0.005,0.218-0.074
	s0.01-0.176-0.067-0.22c0.09-0.156,0.192-0.305,0.308-0.448c0.069,0.058,0.17,0.053,0.23-0.015c0.061-0.066,0.056-0.168-0.008-0.23
	c0.064-0.063,0.128-0.127,0.198-0.186c0.069-0.06,0.142-0.113,0.215-0.166c0.052,0.073,0.151,0.094,0.226,0.045
	c0.076-0.049,0.098-0.148,0.053-0.225c0.159-0.092,0.322-0.169,0.49-0.232c0.031,0.083,0.122,0.128,0.207,0.101
	c0.085-0.027,0.132-0.118,0.108-0.203c0.177-0.047,0.354-0.082,0.534-0.099c0.007,0.089,0.084,0.158,0.174,0.152
	c0.091-0.004,0.159-0.08,0.157-0.169c0.182,0,0.362,0.014,0.541,0.043c-0.015,0.088,0.04,0.173,0.128,0.192
	c0.089,0.019,0.174-0.036,0.197-0.124c0.174,0.046,0.344,0.109,0.51,0.184c-0.037,0.081-0.005,0.177,0.075,0.219
	c0.079,0.04,0.176,0.009,0.22-0.067c0.156,0.089,0.305,0.191,0.447,0.307c-0.058,0.069-0.051,0.169,0.015,0.23
	c0.066,0.06,0.167,0.056,0.231-0.008c0.063,0.063,0.126,0.127,0.186,0.198c0.059,0.07,0.112,0.142,0.165,0.214
	c-0.073,0.051-0.093,0.151-0.044,0.227c0.049,0.076,0.149,0.097,0.225,0.052c0.093,0.159,0.168,0.322,0.232,0.491
	c-0.084,0.03-0.129,0.12-0.102,0.207c0.028,0.085,0.118,0.131,0.204,0.108c0.047,0.176,0.082,0.354,0.099,0.533
	c-0.089,0.008-0.157,0.084-0.152,0.174c0.003,0.091,0.08,0.16,0.169,0.158c0,0.182-0.015,0.363-0.043,0.541
	c-0.089-0.016-0.174,0.041-0.193,0.128c-0.019,0.088,0.037,0.174,0.124,0.196c-0.047,0.174-0.11,0.344-0.184,0.511
	c-0.081-0.038-0.178-0.006-0.218,0.074c-0.041,0.08-0.01,0.177,0.067,0.221C283.701,162.617,283.6,162.766,283.483,162.909z"/>
<path fill="#000088" d="M282.117,161.351l1.929,0.565l-1.852-0.781l-0.659-0.149c0.01-0.034,0.017-0.069,0.021-0.104l0.664,0.134
	l2.009,0.046l-1.991-0.274l-0.676,0.027c0.001-0.035,0-0.071-0.004-0.106l0.674-0.042l1.953-0.476l-1.994,0.25l-0.646,0.201
	c-0.009-0.034-0.02-0.067-0.034-0.101l0.642-0.216l1.764-0.964l-1.863,0.757l-0.57,0.36c-0.016-0.031-0.038-0.06-0.059-0.088
	l0.564-0.375l1.454-1.388l-1.602,1.214l-0.46,0.497c-0.024-0.026-0.049-0.051-0.077-0.072l0.447-0.506l1.044-1.718l-1.233,1.587
	l-0.315,0.6c-0.03-0.018-0.062-0.035-0.094-0.048l0.302-0.607l0.564-1.929l-0.781,1.853l-0.148,0.658
	c-0.034-0.01-0.069-0.015-0.105-0.02l0.135-0.664l0.046-2.009l-0.275,1.991l0.027,0.676c-0.036-0.001-0.071-0.001-0.106,0.003
	l-0.042-0.674l-0.474-1.952l0.25,1.994l0.2,0.646c-0.034,0.008-0.068,0.019-0.101,0.032l-0.216-0.642l-0.964-1.762l0.758,1.86
	l0.359,0.57c-0.031,0.016-0.06,0.038-0.088,0.06l-0.374-0.563l-1.388-1.454l1.213,1.602l0.497,0.459
	c-0.026,0.024-0.052,0.05-0.073,0.078l-0.505-0.447l-1.717-1.045l1.587,1.233l0.6,0.315c-0.019,0.031-0.035,0.061-0.048,0.095
	l-0.606-0.301l-1.929-0.565l1.852,0.781l0.659,0.149c-0.01,0.035-0.017,0.069-0.02,0.104l-0.665-0.134l-2.008-0.046l1.99,0.275
	l0.677-0.026c-0.002,0.036-0.001,0.071,0.004,0.106l-0.674,0.042l-1.954,0.475l1.994-0.25l0.647-0.201
	c0.008,0.034,0.02,0.067,0.033,0.101l-0.642,0.217l-1.764,0.964l1.862-0.758l0.57-0.36c0.017,0.031,0.038,0.059,0.059,0.088
	l-0.563,0.374l-1.453,1.389l1.601-1.213l0.459-0.497c0.025,0.026,0.05,0.051,0.078,0.073l-0.447,0.505l-1.044,1.718l1.234-1.587
	l0.314-0.6c0.031,0.02,0.062,0.036,0.094,0.049l-0.301,0.607l-0.563,1.929l0.78-1.853l0.149-0.659
	c0.034,0.01,0.069,0.017,0.104,0.021l-0.134,0.664l-0.046,2.01l0.275-1.991l-0.026-0.677c0.035,0.002,0.07,0.001,0.106-0.003
	l0.042,0.674l0.476,1.953l-0.25-1.995l-0.201-0.646c0.034-0.009,0.068-0.02,0.101-0.033l0.216,0.642l0.965,1.763l-0.758-1.861
	l-0.36-0.57c0.031-0.016,0.06-0.038,0.088-0.06l0.375,0.563l1.388,1.453l-1.214-1.601l-0.497-0.459
	c0.026-0.025,0.052-0.051,0.073-0.078l0.506,0.447l1.716,1.043l-1.586-1.233l-0.599-0.315c0.019-0.03,0.034-0.062,0.048-0.094
	L282.117,161.351z"/>
<line fill="none" stroke="#0F2835" stroke-width="2.5" stroke-miterlimit="10" x1="281.841" y1="139.667" x2="234.877" y2="179.505"/>
<path fill="#A0DDD8" d="M252.964,233.609c-2.458-55.989-48.627-100.626-105.222-100.626c-56.596,0-102.764,44.637-105.223,100.626
	H252.964z"/>
<path fill="#93C67E" d="M193.84,193.168c-0.135-2.346-2.966-3.238-4.918-4.262c0.099-2.156,0.672-0.456,0.537-2.536
	c-0.672-0.028-1.076-0.134-1.717,0.135c-1.513,0.673-0.673,0.866-0.673,1.107c0.07,1.158,1.518-0.242-0.034,1.189
	c-0.438,0.375-1.149,0.375-1.683,0.431c-1.045-1.455-0.977-2.184-2.997-2.238c-0.807,0.866-1.752,2.159-2.187,3.48
	c-0.672,1.997-0.204,0.62-0.133,2.775c-0.035,0.083,0,0.19,0,0.272c-0.035,1.292-0.339-0.246-0.135,0.945
	c1.583-0.325,0.373-0.297,1.551-0.677c1.111-0.378,4.515-1.403,5.491-1.158C189.26,193.168,191.215,195.006,193.84,193.168z"/>
<path fill="#93C67E" d="M202.192,197.779c1.648,1.19,2.862,1.914,5.018,1.324c0.299-2.646-0.538-2.51-1.346-4.317
	c0.135-0.217,0.503-0.486,0.573-0.538c0.607-0.806,0.303,0.321,0.607-1.051c-1.583-0.511-4.143-2.132-4.342-4.259
	c0.772-0.622,0.538-0.245,1.107-0.622c1.245-0.811,0.303,0.428,1.044-0.944c-0.638-1.242-1.344-1.458-2.896-0.839
	c-0.673,0.272-2.458,1.539-2.828,1.832c0.234,3.293,2.186,4.559,3.573,6.07C202.53,196,202.158,195.596,202.192,197.779z"/>
<g>
	<path fill="#93C67E" d="M237.863,233.609h14.951c-0.208-4.543-0.706-9.012-1.478-13.386c-0.304-0.484-0.634-1.122-0.952-2.052
		c-2.052,0.668-2.121,0.724-4.545,1.127l-0.111,0.145c-0.965,1.376,0.048,0.8-1.646,2.231c-2.017,1.693-3.331,4.014-5.583,5.389
		c-0.276,2.405,0.201,2.942-0.407,5.798C238.047,233.059,237.969,233.319,237.863,233.609z"/>
	<path fill="#93C67E" d="M251.19,219.395c0.048,0.275,0.097,0.551,0.145,0.828c0.006,0.006,0.006,0.013,0.014,0.021
		C251.301,219.96,251.247,219.677,251.19,219.395z"/>
	<path fill="#93C67E" d="M67.507,233.609c-0.04-0.155-0.122-0.399-0.298-0.793c-2.093-4.58-4.076-2.017-6.569-4.282
		c-1.114-0.946-1.314-2.432-3.166-2.156c-2.796,0.373-1.245,0.807-4.139-0.544c-2.465-1.163-5.021-2.508-6.742-4.07
		c-0.09-3.276,0.91-2.963-1.583-5.983c-1.269,5.777-2.063,11.735-2.34,17.828L67.507,233.609L67.507,233.609z"/>
	<path fill="#93C67E" d="M62.484,221.705c0.945-1.886,0.711-2.914,3.773-2.424c0.304,1.618-0.166,2.804-0.572,4.042
		c-0.27,0.732-1.015,2.045-0.642,3.049c2.19,0.889,2.259-0.787,5.149,0.937c0.155,2.179-0.664,4.55-0.129,6.3h8.692
		c0.787-1.45,1.233-0.729,3.362-1.982c0.234-0.13,0.435-0.269,0.675-0.427c0.269,0.566,0.573,1.1,0.841,1.645
		c1.749-2.079,1.956-0.055,3.973,0.51c0.438,0.122,0.812,0.203,1.137,0.255h1.673c0.74-0.146,1.179-0.415,2.489,0h41.56
		c-0.621-0.631-1.339-1.283-1.762-1.827c-2.321-2.915,0.441-5.853,0.035-9.191c-0.703-6.204-1.714-0.813,1.755-8.312
		c1.817-3.985,4.58-4.014,5.287-5.796c0.607-1.59,0.2-2.72,1.342-4.179c1.01-1.184,2.458-0.945,3.028-2.805
		c0.814-2.293-0.738-2.59-2.424-2.645c-0.704-2.397-0.704-1.804-0.166-4.015c0.304-1.245,0.035-1.837,0.304-3.075
		c0.676-3.097,5.963-0.029,7.477-1.293c0.704-1.321,0.807-2.618,0-3.884c-0.849-1.265-1.956-1.107-2.528-2.322
		c1.279-0.862,0.338-0.103,1.445-0.35c1.314-0.298,1.142-0.677,2.693-0.967c1.382-0.275,2.266-1.541,3.607-2.403
		c1.921-1.238,1.006-2.349,3.331-2.729c3.739-0.648,1.315-0.538,1.721-4.014c0.566-0.222,1.107-0.462,1.645-0.704
		c1.176,1.535-0.304,0.918,1.114,1.942c0.365-0.214,0.807-0.435,1.21-0.648c-0.207-1.672-0.979-1.349-1.486-3.421
		c-1.852,0.297-2.521,1.858-4.008,1.293c-1.444-0.545-1.513-2.618-1.444-4.346c0.538-1.293,3.227-1.997,4.276-2.32
		c1.686-0.566,1.445-1.7,3.003-3.235c2.018-2.025,0.539,0.027,1.515-2.59c2.225-0.083,1.175-0.159,2.492-0.834l0.062-0.028
		l0.139-0.055c0.773-0.352,1.782-0.435,2.796-0.78c3.705-1.237,5.218-0.621,7.912,0.483c2.086,0.862,8.387,0.89,8.863,3.531
		c-1.522,1.59-2.97,0.435-5.156,0.566c0.407,2.052,0.573,2.052,2.425,2.618c0.303-0.973-0.131-0.593,0.373-1.21
		c0.606,0.131,1.21,0.241,1.816,0.351c0.614-2.079,1.314-1.782,3.373-2.023c-0.345-1.431-0.71-1.024,0.062-2.155
		c2.128,0.214,0.408,0.027,1.445,1.727c1.486-0.193,2.935-1.838,4.987-2.052c1.279-0.138,1.217,0.352,3.028,0.159
		c1.486-0.159,1.417-0.696,2.9-0.075c0.538-1,0-0.973,1.314-1.218c2.018-0.352,3.772,0.89,5.721,1.162
		c-1.445-1.783-2.825-1.431-1.038-4.4c2.251-0.455,2.458-0.131,3.435,1.569c0.552-0.318,0.786-0.628,1.059-0.788
		c-0.152-0.123-0.304-0.248-0.463-0.373c-0.841-0.669-1.687-1.319-2.555-1.961c-0.167-0.124-0.332-0.242-0.503-0.366
		c-0.718-0.531-1.446-1.051-2.183-1.562c-0.235-0.158-0.463-0.324-0.696-0.483c-0.89-0.607-1.784-1.204-2.687-1.783
		c-0.083-0.055-0.172-0.104-0.254-0.159c-0.829-0.524-1.666-1.038-2.515-1.542c-0.262-0.159-0.524-0.318-0.787-0.469
		c-0.807-0.469-1.617-0.938-2.431-1.383c-0.146-0.076-0.282-0.159-0.421-0.235c-0.93-0.511-1.872-1.001-2.824-1.479
		c-0.276-0.138-0.552-0.269-0.821-0.406c-0.765-0.373-1.527-0.745-2.3-1.101c-0.241-0.11-0.482-0.227-0.73-0.337
		c-0.96-0.441-1.929-0.863-2.907-1.273c-0.255-0.104-0.518-0.208-0.773-0.317c-0.779-0.318-1.555-0.628-2.341-0.924
		c-0.304-0.118-0.601-0.235-0.897-0.345c-0.997-0.373-1.997-0.731-3.011-1.066c-0.193-0.062-0.386-0.125-0.579-0.186
		c-0.855-0.283-1.708-0.56-2.577-0.822c-0.325-0.096-0.656-0.192-0.987-0.29c-0.91-0.269-1.817-0.524-2.741-0.766
		c-0.152-0.033-0.296-0.083-0.448-0.117c-1.038-0.269-2.086-0.517-3.132-0.752c-0.331-0.076-0.668-0.145-1.002-0.221
		c-0.834-0.179-1.667-0.345-2.507-0.504c-0.276-0.054-0.551-0.11-0.828-0.158c-1.052-0.193-2.121-0.366-3.188-0.523
		c-0.316-0.049-0.641-0.091-0.958-0.138c-0.835-0.118-1.659-0.222-2.501-0.318c-0.331-0.041-0.668-0.082-1.006-0.117
		c-1.042-0.1-2.121-0.196-3.217-0.279c-0.263-0.021-0.524-0.035-0.787-0.048c-0.886-0.063-1.776-0.11-2.663-0.146
		c-0.366-0.021-0.724-0.034-1.086-0.041c-1.045-0.035-2.093-0.056-3.138-0.062h-0.259c-25.847,0-49.509,9.329-67.814,24.795
		l0.049,0.097c0.138,0.22,0.234,0.22,0.373,0.787c-1.693,0.413-1.7,0.697-2.342,0.779c-0.386,0.352-0.779,0.697-1.162,1.045
		c1.224,0.42,2.838,0.139,4.042,0.09c0.441-0.808,0.71-1.514,1.479-1.804c0.304-0.11,0.675-0.138,1.182-0.11
		c0.062,0.4,0.166,0.807,0.27,1.21c0,0.027,0.041,0.2,0.041,0.241c0.035-0.027,0.062,0.173,0.09,0.249
		c2.128-1.237,0.339-1.266,1.48-3.503c-1.784-0.352-1.542-0.138-2.659-1.273c1.079-1.183,3.166-1.589,4.718-1.48
		c-0.104,1.08-0.607,1.053-0.2,1.97c1.209-0.758,2.052-2.776,4.007-2.403c0.365,0.269,0.806,0.517,1.21,0.758
		c-1.015,0.945-2.528,1-3.842,1.536c-0.573,5.852,1.852,0.944,1.044,4.966c1.446-0.111,2.866-1.156,3.401-2.238
		c-0.535-0.707-1.311-0.707-1.752-1.542c0.345-1.079,1.066-1.899,2.093-2.383c0.689-0.331,1.521-0.51,2.458-0.51
		c10.708,0.083,5.618,0.573,8.925,2.079c0.746,0.325,2.052,0.49,2.493,1.135c0.676,1.025,0.036,1.991,1.107,2.804
		c0.945,0.704,1.079-0.027,2.328,1.535c-0.269,0.89-0.911,1.811-2.226,1.839c-1.817,0.027-0.738-1.218-2.692-1.027
		c0.034,1.83,1.852,2.534,0.166,3.53c-1.479,0.89-0.538-0.325-1.646,0.297c-0.034,0.028-0.137,0.083-0.172,0.111
		c-0.069,0.048-0.131,0.131-0.172,0.186c-0.2,0.214-0.365,0.407-0.539,0.594c-2.692-0.731-2.183-0.4-3.799-2.184
		c-0.607-0.676-0.711-0.841-1.791-0.751c-0.669,0.021-1.541,0.316-2.189-0.277c1.314-1.644,1.956-0.047,3.876-1.024
		c0.337-0.159,2.459-1.803,2.796-2.183c-0.572-1.293-0.068-0.221-0.909-1.052c-1.887-1.914-2.433-1.424-4.988-1.424
		c-1.196,1.375-2.093,3.075-3.4,3.828c-0.786,0.455-1.721,0.558-2.962,0.028c0.573,2.321,2.052,0.538,2.184,3.345
		c-0.973-0.193-1.48-0.683-2.494-0.324c-2.156,0.807-0.234,0.724-0.062,1.155c0,0.027,1.003,0.13,0,0.51
		c-1.114,0.407-0.172-0.213-2.328-1.479c0.303-0.538,0.606-1.1,0.911-1.672c-1.749,0.539-3.939,1.403-5.991,2.403
		c-2.327,1.155-4.517,2.48-5.824,3.69c-0.035,2.024,0.331,0.676,0.538,3.076c3.13,0.187,2.12,1.128,5.252,2.017
		c0.607,0.167,1.375,0.325,2.327,0.491c0,1.506-1.348,2.645-0.414,4.207c2.19,1.534,2.259-1.459,2.804-3.366
		c7.407-1.549,3.835-3.731,5.749-7.808c0.289-0.607,0.697-1.259,1.286-1.955c0.573,0.021,2.894,0.269,3.401,0.372
		c1.679,0.297,0.773,0.704,2.59,1.508c-0.034,1.458-0.773,3.345,1.383,2.996c1.645-0.289,1.279-1.589,3.297-1.913
		c0.911,2.134,0.676,3.052,1.079,5.611c4.849,1.886,2.694,3.42,1.749,6.955c0.607,0.296,1.245,0.573,1.887,0.842
		c-0.035,1.024-0.069,2.018-0.104,3.024c-0.097,0-5.184-1.106-5.521-1.218c0.78-2.21,2.19-2.238,3.097-4.503
		c-1.817,0.324-1.686,0.889-2.997,1.293c-1.177,0.351-2.087,0.109-3.325,0.269c0.035,0.096,0.069,0.276,0.09,0.593
		c0.068,0.703,0.406,0.034-0.069,0.786c-1.68-0.786-1.107-2.617-4.242-0.917c0.71,0.325,1.411,0.621,2.156,0.917
		c-0.097,2.073-0.27,0.511-0.711,1.886c-1.072,3.532,2.935,1.349,3.98,1.163c-0.276,1.859-1.417,1.859-3.039,2.369
		c-1.783,0.538-2.321,1.266-3.738,1.597c0-2.218-0.332-0.352,0.641-1.894c-1.41,0.138-2.459,0.786-3.8,1.349l-0.138,0.055
		c-1.728,0.704-1.989,0.806-2.189,3.018c-1.48,0.462-3.194,0.979-4.242,2.051c-1.044,1-2.086,1.997-3.097,2.97
		c-0.103,0.083-0.172,0.159-0.234,0.214c0.373,2.783,0,2.831-1.687,3.911c-1.417,0.917-1.886,0.897-3.2,2.052
		c-4.207,3.773-2.183,2.017-1.956,8.518c-0.875-0.269-1.713-0.565-2.521-0.862c-0.641-4.311,0.235-2.887-3.234-3.883
		c-3.738-1.073-3.228,0.758-4.779,1.079c-1.721,0.379-2.563-1.563-5.053,0.055c-1.376,0.945-2.693,1.562-3.031,3.235
		c-0.407,2.024-1.314,3.504-1.176,5.742C55.553,224.185,61.074,224.538,62.484,221.705z M146.011,172.89
		c1.186-1.052,1.014-0.887,2.769-1.486c0.269,0.599,0.539,1.189,0.841,1.782c0.408,1.673-0.911,0.297,0.408,2.294
		c1.038,1.238,2.052,2.479,3.062,3.718c-0.642,1.859-0.607,2.024-2.424,2.182c-1.279,0.111-2.728,0.462-3.704,0.407
		c0.373-2.396-0.337-1.155,0.235-2.534c0.641-1.645,0.745-0.408,1.307-1.997C147.259,175.397,145.948,176.663,146.011,172.89z"/>
	<path fill="#93C67E" d="M211.924,212.205c-2.804,0.138-2.562,1.183-5.293-1.156c-1.782-1.513-1.445-3.938-4.034-2.569
		c-0.104,2.218,0.979,2.7,1.947,3.725c0.711,0.786,1.584,1.32,1.957,2.369c0.035,0.035,0.199,1.024,0.234,1.162
		c2.529,0.166,3.132-1.052,4.511-2.073c1.349,1.267,0.035,1.48,1.99,2.48c1.548,0.786,1.244,0.324,2.258,1.589
		c0.504,1.7-3.469,6.308-4.786,7.146c-1.007,0.648-1.548,0.268-2.459,1.021c-1.342,1.135,0.172,0.973-2.183,1.838
		c-2.528,0.917-5.028,2.859-7.684,3.018c-0.572-1.562-1.141-3.152-1.714-4.745c-1.686-5.417-1.617-3.318-3.331-6.121
		c-0.814-1.211-0.477-1.997-1.011-3.077c-0.373-0.807-0.945-1.155-1.452-2.155c-0.772-1.535-1.679-3.932-3.462-3.691
		c-0.372,1.211,1.645,5.308,2.155,6.309c0.503,1,1.307,1.431,1.548,2.859c0.338,1.968-0.069,1.728,1.007,3.048
		c2.259,2.721-0.097,2.238,3.4,4.904c2.631,1.997,1.956,2.597,3.07,5.26c1.714,0.49,6.832-1.803,7.705-1.128
		c0.234,0.418,0.302,0.892,0.261,1.393h27.2c-0.512-1.201-0.994-2.443-1.19-3.013c-0.745-2.155-1.583-3.752-2.121-6.231
		c-0.303-1.321-0.511-3.856-0.813-4.745c-1.445,0.213-1.376,1.134-2.763,0.165c-0.979-0.71-0.538-1.134-1.079-2.189
		c-1.142-1.073-2.321-2.155-3.497-3.234c-0.911-0.291-4.415,0.22-5.894,0.055C213.735,214.173,213.507,214.332,211.924,212.205z"/>
</g>
<path fill="#92C7C2" d="M121.873,233.609h59.112c1.449-11.547-8.677-45.091,7.437-53.559c6.373-3.349-21.616-2.573-21.616-2.573
	s-54.071,0.872-57.949,0.806c-3.879-0.067,4.408,11.152,8.377,17.889C120.316,201.409,121.5,223.865,121.873,233.609z"/>
<path fill="#93C67E" d="M78.71,159.11c0.314-0.273,0.627-0.549,0.945-0.818C79.338,158.561,79.024,158.837,78.71,159.11z"/>
<path fill="#85B372" d="M121.873,233.609h18.445c-7.944-11.693-27.115-34.112-12.921-41.57c6.372-3.349-8.494-12.386-8.494-12.386
	s-6.168-1.304-10.047-1.37c-3.879-0.067,4.408,11.152,8.377,17.889C120.316,201.409,121.5,223.865,121.873,233.609z"/>
<path fill="#3B798C" d="M104.391,174.199c0,0,1.679-14.03,5.948-14.294l74.685-0.796c0,0-2.811,8.434-6.089,18.003
	C178.935,177.112,149.093,187.7,104.391,174.199"/>
<path fill="#4993AC" d="M109.106,152.61c0,0-8.785,19.667-3.749,25.759c2.236,2.704,3.861,4.122,3.861,4.122l11.823,8.386
	l2.081,21.631l2.685,15.297l21.839-1.588c0,0,0.415-18.402,0.595-27.399c0.073-3.623-0.233-20.941-0.331-23.03
	c-0.264-5.704,1.345-13.501-13.566-15.884C134.345,159.905,118.238,146.455,109.106,152.61"/>
<path fill="#4993AC" d="M153.603,163.28c0,0-5.517,2.978-4.347,16.281c1.17,13.302,2.56,36.729,2.56,36.729l1.787,11.515
	l21.644,2.46c0,0,1.718-12.793,2.649-41.573c0.07-2.137,9.428-7.722,10.524-8.642c5.254-4.412,5.155-18.521-2.483-31.695
	c0,0-1.363,11.152-17.644,10.754C168.294,159.11,155.191,158.912,153.603,163.28"/>
<path fill="#3B798C" d="M147.646,233.609v-10.569c0,0-17.669,2.382-23.03,1.389c-0.374-0.069,0.216,5.294,0.69,9.18H147.646
	L147.646,233.609z"/>
<path fill="#3B798C" d="M175.199,233.609c0.141-3.229,0.24-6.399,0.24-6.399c-2.185-1.39-21.835,0.595-21.835,0.595l0.393,5.804
	H175.199L175.199,233.609z"/>
<path fill="#40899E" d="M107.911,158.777c0,0-4.734,10.128,7.997,9.598c12.731-0.529,18.127-2.11,22.048,0.021
	c3.919,2.131,10.524,8.336,9.955,7.393c-0.279-0.464,1.165-9.098-3.934-12.345C142.588,162.558,111.073,149.609,107.911,158.777"/>
<path fill="#40899E" d="M150.385,167.813c0,0,1.155-4.137,4.891-5.46c3.06-1.084,6.453-0.265,12.607-0.959
	c6.155-0.694,20.066-11.606,20.655-7.888c0.589,3.719,2.433,8.042-0.801,10.326s-8.338,2.585-18.861,2.257
	c-10.522-0.327-10.324-0.426-13.004,2.75c-2.681,3.176-6.711,3.554-6.742,5.65C149.1,176.583,149.102,170.726,150.385,167.813"/>
<path fill="#FC2C48" d="M105.915,65.869c0,0-8.821,20.5-9.311,23.727s-2.45,18.276-2.45,18.276s-0.735,1.583-1.41,3.574
	c-0.673,1.992-1.286,4.394-1.041,6.032c0.49,3.277,1.36,5.113-0.055,7.381c-1.416,2.268-2.016,6.188,0,7.658
	c2.016,1.47-1.296,5.881-1.296,5.881s-2.742,3.084,15.563,14.211c4.208,2.559,11.272,5.391,11.272,5.391v-20.093
	c0,0-3.92-1.96-4.901-3.43c-0.98-1.471,1.47-6.986-0.98-9.619c0,0,4.411-3.733,5.881-4.899c1.47-1.165,0-23.804,0-23.804
	S111.306,65.377,105.915,65.869"/>
<path fill="#03080A" d="M129.367,35.242c0,0,9.852,17.159,5.778,24.396c-4.072,7.238-7.565,11.506-7.565,11.506
	S122.219,47.949,129.367,35.242"/>
<path fill="#0F2835" d="M169.001,61.114c8.235,9.207,1.597-30.249-2.349-40.425c-2.216-5.714-5.298-0.13-5.962,3.337
	c0,0,0.198,0.532,0.494,4.479c0.234,3.117,0.235,3.372,0.235,3.372l-5.834,17.389c0,0,1.382,4.008,5.044,7.878
	C162.303,58.912,165.982,57.74,169.001,61.114"/>
<path fill="#03080A" d="M160.227,23.635c0,0,3.837,5.696,2.229,12.764c-2.922,12.841-1.477,19.425-0.032,19.806l-3.431-0.754
	c0,0-3.22-3.482-1.603-10.679c1.997-8.881,3.609-13.228,3.609-13.228L160.227,23.635z"/>
<path fill="#F8DBA9" d="M158.388,54.403c-0.776-1.583-1.961-3.338-2.064-5.431c3.027-5.54,4.722-9.979,4.675-17.429
	c-0.542-4.372-0.465-2.294-0.729-7.853c-1.774-13.491-5.075-20.416-17.705-19.004c-13.95,1.559-19.167,7.597-16.4,25.856
	c-1.757,0.188-1.816,5.523,2.269,7.238c3.27,12.001,6.875,13.832,6.708,14.083c0.278,4.512-3.601,12.542-17.605,16.431
	l-1.627,11.414c0,0,23.021,33.718,40.364,28.939c17.343-4.779,17.64-46.95,17.64-46.95S161.542,60.836,158.388,54.403"/>
<path fill="#DCC699" d="M173.661,69.326c0.536-3.206,0.205-7.661,0.205-7.661s-12.371-0.861-15.525-7.293
	c-0.777-1.584-1.985-3.453-2.092-5.547c3.155-5.199,4.749-9.864,4.703-17.313c-0.033-0.264-0.11-2.34-0.728-7.854
	c-1.434-10.893-20.908-5.185-28.442-6.583c3.245,6.756,20.034,3.736,24.958,7.464c4.933,3.734,4.383,16.758-1.712,24.291
	c-6.791,8.393-13.334,4.313-13.334,4.313c0.053,0.009,1.895,3.004,11.508-0.6C155.787,51.571,165.184,66.642,173.661,69.326"/>
<path fill="#FC2C48" d="M173.081,140.203l14.186-74.334c0,0-16.165-9.181-28.417-11.141c0,0-1.718,9.295-12.011,9.792
	c-10.512,0.404-13.155-8.315-13.155-8.315c-12.251,1.96-27.769,9.664-27.769,9.664l11.271,72.04L173.081,140.203z"/>
<path fill="#AA1D33" d="M132.899,56.664l0.785-0.459c0,0,2.243,8.646,13.155,8.315c10.229-0.312,12.011-9.792,12.011-9.792
	s7.816,0.579,4.631,4.263c-12.341,14.273-20.457,7.408-21.05,19.982c-0.593,12.575-35.869,19.562-33.163,8.324
	c1.85-7.676-5.171-4.823-3.353-21.428"/>
<path fill="#DCC699" d="M145.805,50.307c-1.509,0.483-3.271-0.179-3.176-0.592c0.097-0.414,1.021-0.688,2.132-0.563
	C146.283,49.325,146.648,50.04,145.805,50.307"/>
<path fill="#1D1D1B" d="M131.766,32.746c2.271-1.211,3.606-1.977,7.359-2.03C134.714,30.304,132.674,32.133,131.766,32.746"/>
<path fill="none" d="M131.766,32.746c2.271-1.211,3.606-1.977,7.359-2.03C134.714,30.304,132.674,32.133,131.766,32.746z"/>
<path fill="#D1887B" d="M132.074,32.42c0.792-0.451,3.928-1.823,5.582-1.885c1.654-0.064,2.021,0.288,1.004,0.401
	c-2.047,0.233-4.222,0.842-5.228,1.351C131.396,33.316,132.074,32.42,132.074,32.42"/>
<path fill="#1D1D1B" d="M157.307,32.667c-2.352-1.079-3.735-1.768-7.487-1.604C154.194,30.397,156.357,32.106,157.307,32.667"/>
<path fill="none" d="M157.307,32.667c-2.352-1.079-3.735-1.768-7.487-1.604C154.194,30.397,156.357,32.106,157.307,32.667z"/>
<path fill="#D1887B" d="M156.974,32.357c-0.82-0.403-4.046-1.593-5.7-1.56c-1.654,0.032-1.996,0.404-0.976,0.459
	c2.061,0.112,4.273,0.597,5.311,1.045C157.715,33.214,156.974,32.357,156.974,32.357"/>
<path fill="#C97D64" d="M139.151,45.499c0,0,1.941,0.324,2.958,0.277c0.864-0.039,1.648-0.415,1.867-0.223
	c0.218,0.19,0.467,0.378,0.619,0.325c0.152-0.054,0.562-0.526,1.062-0.375c0.499,0.152,0.801,0.32,1.766,0.32
	c1.432,0,2.819-0.508,2.819-0.508s-2.015,3.285-5.361,3.327C140.281,48.7,139.151,45.499,139.151,45.499"/>
<path fill="#9C614E" d="M141.882,46.935c0,0,1.186,0.275,2.296,0.244c1.109-0.031,2.911-0.354,2.911-0.354s-1.547,0.54-2.679,0.639
	C143.277,47.562,141.882,46.935,141.882,46.935"/>
<path fill="#D1887B" d="M143.471,35.928c0,0-0.514,2.762-1.17,4.099c-0.428,0.872-0.875,1.832-0.445,2.203
	c0.829,0.714,3.116-0.105,3.116-0.105s-2.825,0.23-2.695-0.586C142.405,40.721,143.773,36.901,143.471,35.928"/>
<path fill="#D1887B" d="M147.45,40.89c0,0,0.236,0.719-0.09,0.978c-0.195,0.154-0.657,0.204-1.018,0.224
	c-0.396-0.019-0.887-0.032-0.835,0.019c0.392,0.392,0.888,0.232,1.145,0.106c0.386,0.026,0.803,0.013,0.968-0.143
	C147.96,41.751,147.45,40.89,147.45,40.89z"/>
<path fill="#1D1D1B" d="M134.052,35.367c0,0,1.167,0.233,2.949-0.05c1.439-0.229,2.462-0.611,2.393-0.263
	c-0.069,0.348,0.004,0.817-1.183,1.003C136.743,36.289,135.33,36.005,134.052,35.367"/>
<path fill="#1D1D1B" d="M155.111,35.639c0,0-1.167,0.233-2.949-0.05c-1.439-0.228-2.462-0.611-2.393-0.263
	c0.069,0.348-0.004,0.817,1.182,1.003C152.42,36.56,153.833,36.277,155.111,35.639"/>
<path fill="#FC2C48" d="M187.267,65.869c0,0,8.821,20.5,9.311,23.727c0.49,3.227,2.451,18.276,2.451,18.276s2.94,6.328,2.45,9.606
	c-0.49,3.277-1.359,5.113,0.055,7.38c1.416,2.268,2.016,6.188,0,7.659c-2.015,1.47,1.296,5.881,1.296,5.881
	s1.057,5.757-15.563,14.211c-4.39,2.233-11.271,5.391-11.271,5.391v-20.093c0,0,3.92-1.96,4.901-3.43
	c0.98-1.471-1.47-6.986,0.98-9.619c0,0-4.411-3.733-5.881-4.899c-1.47-1.165,0-23.804,0-23.804S181.876,65.377,187.267,65.869"/>
<path fill="none" d="M132.899,56.664c0,0,0,10.423,13.541,10.145c0,0,11.789-0.292,14.196-11.602"/>
<path fill="#AA1D33" d="M97.931,111.931c3.186,1.459-5.186-0.485-5.186-0.485S91.777,109.112,97.931,111.931"/>
<path fill="#AA1D33" d="M92.393,122.673c0,0,5.528-2.654,8.98-3.714C101.373,118.959,92.114,119.765,92.393,122.673"/>
<path fill="#AA1D33" d="M93.634,109.103c0,0,1.782-1.64,3.977,0.026C97.611,109.129,94.33,108.253,93.634,109.103"/>
<path fill="#AA1D33" d="M196.438,131.816c-3.489-0.33,4.733,2.173,4.733,2.173S203.178,132.453,196.438,131.816"/>
<path fill="#AA1D33" d="M199.848,108.419c0,0-5.547,2.618-8.543,4.63C191.305,113.049,197.766,106.369,199.848,108.419"/>
<path fill="#AA1D33" d="M201.345,133.939c0,0-4.728-3.907-7.821-5.766C193.524,128.173,202.316,131.184,201.345,133.939"/>
<path fill="#AA1D33" d="M201.448,123.394c0,0-1.783-1.64-3.977,0.025C197.472,123.419,200.752,122.544,201.448,123.394"/>
<path fill="#0F2835" d="M135.996,0.566c-9.939,2.085-22.91,51.154-22.91,51.154s-3.777,13.634-3.868,21.045
	c-0.075,6.165-1.691,14.096,10.221,14.096c5.812,1.39,19.545-0.424,19.348-7.153c-10.694-7.425-3.625-55.518-5.723-62.168
	c5.075,4.175,26.336,4.816,29.134,10.647l4.919-6.216C163.97,6.461,150.086-2.392,135.996,0.566"/>
<path fill="none" d="M135.996,0.566c-9.939,2.085-22.91,51.154-22.91,51.154s-3.777,13.634-3.868,21.045
	c-0.075,6.165-1.691,14.096,10.221,14.096c5.812,1.39,19.545-0.424,19.348-7.153c-10.694-7.425-3.625-55.518-5.723-62.168
	c5.075,4.175,26.336,4.816,29.134,10.647l4.919-6.216C163.97,6.461,150.086-2.392,135.996,0.566z"/>
<path fill="#03080A" d="M137.063,0.566c0,0-13.976,16.274-18.542,58.265c0,0-3.839,27.984,0.918,28.031
	c0,0-17.869,5.239-6.354-35.142C119.23,30.175,124.435,4.803,137.063,0.566"/>
<path fill="#AA1D33" d="M165.285,113.313c0,0,12.727-1.806,14.067-26.229c0,0-0.893,7.814-0.152,12.628
	c0.53,3.442-2.639,3.421-0.521,6.034c2.118,2.612-0.251,4.63-1.707,7.608c-1.457,2.978,2.068,4.402,0,6.874
	C174.902,122.7,166.217,121.793,165.285,113.313"/>
<path fill="#AA1D33" d="M117.187,96.156c0,0-1.682,8.736-3.281,10.848c-1.598,2.111,5.023,8.601,7.308,5.47
	c2.283-3.13,7.127-3.091,1.927-4.445C115.908,106.147,117.187,96.156,117.187,96.156"/>
<path fill="#FFFFFF" d="M183.28,163.443h-70.704c-2.566,0-4.665-2.1-4.665-4.666l-5.252-49.07c0-2.567,2.1-4.666,4.666-4.666h81.473
	c2.566,0,4.666,2.099,4.666,4.666l-5.518,49.07C187.945,161.344,185.846,163.443,183.28,163.443"/>
</svg>
